<?xml version="1.0" standalone="no"?>
<!DOCTYPE svg PUBLIC "-//W3C//DTD SVG 20010904//EN"
 "http://www.w3.org/TR/2001/REC-SVG-20010904/DTD/svg10.dtd">
<svg version="1.0" xmlns="http://www.w3.org/2000/svg"
 width="500.000000pt" height="500.000000pt" viewBox="0 0 500.000000 500.000000"
 preserveAspectRatio="xMidYMid meet">

<g transform="translate(0.000000,500.000000) scale(0.100000,-0.100000)"
fill="#000000" stroke="none">
<path d="M1708 4690 c-269 -49 -496 -221 -617 -467 -62 -125 -91 -249 -91
-387 0 -157 6 -186 41 -198 34 -12 40 -51 10 -67 -28 -15 -61 -91 -61 -139 0
-23 7 -56 16 -74 15 -33 15 -35 -19 -86 -68 -100 -75 -250 -18 -367 36 -74
127 -175 157 -175 24 0 101 77 142 143 17 27 36 70 43 97 l12 48 66 -55 c36
-30 103 -73 149 -95 74 -36 82 -43 82 -68 l0 -28 -148 -3 c-148 -4 -148 -4
-225 -42 -86 -42 -135 -92 -176 -177 l-26 -55 -3 -395 c-2 -217 0 -410 3 -428
9 -46 68 -109 115 -122 41 -11 113 -1 133 19 6 6 15 11 19 11 4 0 8 -127 8
-283 0 -207 3 -286 12 -295 7 -7 31 -12 55 -12 l43 0 0 -266 0 -266 26 -49
c39 -71 90 -103 175 -107 79 -5 141 19 183 69 14 16 28 29 31 29 3 0 18 -14
32 -30 39 -47 93 -70 163 -70 73 0 125 23 168 75 47 58 52 91 52 363 l0 251
48 3 47 3 3 293 c2 297 5 315 39 281 18 -18 86 -29 127 -19 21 4 52 21 68 37
57 53 58 58 58 475 0 429 -3 454 -65 544 -43 62 -84 95 -163 132 -52 24 -70
27 -204 30 l-148 4 0 28 c0 25 8 32 83 69 45 22 110 63 144 90 34 28 64 51 67
51 3 0 10 -19 16 -42 7 -24 23 -63 38 -88 36 -63 121 -150 145 -150 25 0 104
82 141 145 75 127 69 318 -12 415 l-28 33 18 36 c33 65 18 150 -35 201 -36 34
-35 65 2 78 27 10 30 15 37 78 9 89 -1 264 -21 335 -41 151 -110 274 -214 383
-113 117 -251 201 -396 241 -69 18 -278 28 -347 15z m-199 -134 c-2 -2 -15 -9
-29 -15 -24 -11 -24 -11 -6 3 16 13 49 24 35 12z m218 -688 c-3 -7 -5 -2 -5
12 0 14 2 19 5 13 2 -7 2 -19 0 -25z m230 -60 c-3 -7 -5 -2 -5 12 0 14 2 19 5
13 2 -7 2 -19 0 -25z m330 -60 c-3 -8 -6 -5 -6 6 -1 11 2 17 5 13 3 -3 4 -12
1 -19z m-680 -20 c-3 -8 -6 -5 -6 6 -1 11 2 17 5 13 3 -3 4 -12 1 -19z m140
-15 c-3 -10 -5 -4 -5 12 0 17 2 24 5 18 2 -7 2 -21 0 -30z m-395 -70 c14 -17
294 -18 304 -1 4 6 11 25 15 42 l7 31 1 -30 c2 -52 12 -55 167 -55 152 0 152
0 165 54 5 25 7 26 8 8 1 -13 6 -32 11 -43 10 -17 23 -19 153 -19 156 0 166 3
168 54 l1 31 8 -33 c11 -46 17 -50 80 -54 l55 -3 3 -95 c4 -127 -10 -196 -65
-310 -85 -178 -259 -315 -449 -355 -311 -66 -626 101 -751 400 -32 75 -45 159
-41 265 l3 95 60 5 60 5 10 40 c10 39 10 39 13 10 2 -16 8 -36 14 -42z m-222
-151 c0 -32 5 -84 11 -116 6 -32 8 -60 5 -63 -10 -11 -62 24 -84 57 -32 47
-26 109 14 151 43 44 54 38 54 -29z m1477 36 c49 -55 56 -106 20 -159 -22 -32
-73 -67 -83 -56 -3 3 -1 31 5 63 6 32 11 84 11 116 0 65 12 74 47 36z m-116
-361 c-10 -9 -11 -8 -5 6 3 10 9 15 12 12 3 -3 0 -11 -7 -18z m-1494 -129 c-3
-8 -6 -5 -6 6 -1 11 2 17 5 13 3 -3 4 -12 1 -19z m146 -223 c-7 -21 -12 -19
-10 4 0 11 5 18 9 15 4 -3 5 -11 1 -19z m707 -20 c41 0 94 3 118 8 42 7 42 7
42 -24 0 -16 5 -39 10 -49 9 -17 6 -21 -17 -27 -16 -5 -86 -8 -158 -8 -71 0
-142 3 -158 8 -23 6 -26 10 -17 27 5 10 10 32 10 49 l0 31 48 -8 c26 -4 81 -7
122 -7z m-287 -104 c31 -16 80 -35 111 -42 l54 -12 -49 -48 c-70 -68 -94 -125
-93 -219 1 -81 18 -127 56 -154 57 -40 129 1 147 85 6 27 11 70 11 95 l0 45
48 -3 47 -3 6 -75 c3 -41 11 -87 17 -101 21 -52 85 -74 134 -48 55 30 77 190
38 277 -10 23 -42 66 -70 96 l-50 53 63 17 c34 10 82 29 106 43 41 24 50 25
129 19 148 -11 252 -77 305 -194 19 -40 22 -69 25 -204 l4 -158 -106 0 c-58 0
-109 0 -113 0 -5 0 -9 41 -11 92 -3 100 -13 124 -43 107 -18 -9 -19 -25 -19
-299 l0 -290 -465 0 -465 0 0 290 c0 271 -1 290 -18 299 -33 17 -42 -6 -42
-105 l0 -93 -87 -3 c-49 -2 -101 -1 -116 1 l-29 4 4 156 c4 178 15 215 88 295
66 71 147 102 271 105 45 1 69 -5 112 -28z m337 -101 c21 -40 -10 -90 -56 -90
-27 0 -54 30 -54 59 0 34 10 48 40 59 29 11 55 1 70 -28z m-168 -198 c-6 -76
-12 -106 -25 -119 -16 -16 -18 -16 -34 0 -13 13 -19 38 -21 95 -3 72 -1 80 28
127 l32 49 13 -25 c10 -18 12 -51 7 -127z m307 51 c17 -62 8 -145 -19 -176
-14 -16 -40 6 -49 42 -15 55 -17 173 -3 197 6 12 10 23 9 26 -1 2 10 -8 25
-23 15 -16 32 -45 37 -66z m-721 -562 c-3 -216 -3 -220 -27 -245 -55 -59 -140
-51 -181 16 -18 30 -20 50 -20 241 l0 207 116 0 115 0 -3 -219z m1282 12 c0
-191 -2 -211 -20 -241 -43 -70 -131 -75 -185 -11 l-25 31 0 214 0 214 115 0
115 0 0 -207z m-847 -887 c3 -8 18 -16 34 -18 l28 -3 0 -150 0 -150 -167 -3
-168 -2 0 155 c0 132 2 155 15 155 9 0 18 7 21 15 9 21 229 22 237 1z m457
-171 l0 -155 -170 0 -170 0 0 148 c0 82 3 152 7 155 3 4 80 7 170 7 l163 0 0
-155z m-400 -288 c0 -93 -25 -141 -92 -175 -62 -32 -123 -25 -174 21 -42 36
-53 62 -61 139 -9 91 -16 87 167 87 l160 -1 0 -71z m388 -13 c-4 -97 -20 -126
-89 -162 -69 -36 -154 -15 -200 50 -18 25 -24 49 -27 115 l-5 84 163 -2 162
-2 -4 -83z"/>
<path d="M1551 3553 c-14 -17 -19 -34 -15 -47 8 -27 41 -56 66 -56 24 0 68 43
68 67 0 62 -80 86 -119 36z"/>
<path d="M2040 3560 c-27 -27 -25 -56 6 -86 19 -20 31 -24 52 -19 40 10 52 24
52 60 0 59 -68 87 -110 45z"/>
<path d="M1643 3283 c-51 -18 45 -141 127 -163 57 -15 136 -8 188 19 48 24
102 87 102 117 0 25 -25 39 -40 21 -5 -7 -22 -27 -37 -46 -34 -43 -78 -61
-146 -61 -62 0 -109 26 -142 77 -22 35 -33 42 -52 36z"/>
<path d="M1970 2481 c0 -6 4 -13 10 -16 6 -3 7 1 4 9 -7 18 -14 21 -14 7z"/>
<path d="M1540 423 c0 -7 15 -22 33 -34 23 -16 27 -17 12 -3 -11 10 -26 25
-32 33 -8 9 -13 10 -13 4z"/>
<path d="M3713 4682 c-59 -21 -124 -63 -157 -102 -19 -23 -32 -28 -87 -32
-156 -13 -289 -148 -289 -295 0 -31 -12 -67 -41 -124 -72 -145 -102 -316 -79
-462 l12 -78 -26 -20 c-39 -30 -59 -77 -59 -134 0 -89 52 -153 141 -175 48
-11 51 -14 80 -73 66 -133 185 -248 330 -319 74 -36 82 -43 82 -68 l0 -28
-147 -4 c-186 -6 -240 -24 -323 -107 -61 -61 -96 -125 -110 -203 -14 -72 -13
-733 1 -783 16 -58 46 -95 96 -117 48 -21 109 -18 150 8 12 8 25 14 28 14 3 0
5 -59 5 -130 0 -127 1 -131 24 -141 17 -8 22 -17 20 -37 -2 -15 -5 -73 -6
-130 -1 -90 1 -104 18 -118 18 -15 18 -15 -2 -5 -17 8 -25 6 -38 -8 -14 -16
-16 -42 -14 -197 l3 -179 46 -3 47 -3 4 -87 c8 -162 82 -242 223 -242 70 0
118 20 162 66 l34 36 44 -41 c56 -52 80 -61 160 -61 54 0 69 4 111 33 71 47
98 101 104 207 l5 85 45 5 45 5 3 474 c2 445 3 473 20 466 73 -32 104 -38 141
-26 51 15 87 45 111 92 19 36 20 60 20 422 0 321 -3 392 -16 437 -31 103 -99
181 -204 233 -63 31 -69 32 -217 36 l-153 3 0 29 c0 19 6 32 18 36 77 26 172
84 239 147 74 68 167 195 179 242 4 16 16 24 42 29 148 28 212 189 116 295
l-35 39 12 82 c22 150 -7 314 -81 459 -23 47 -40 95 -44 128 -16 155 -138 276
-291 290 -54 4 -65 9 -112 52 -79 73 -131 93 -243 97 -74 3 -107 -1 -147 -15z
m-63 -106 c0 -2 -8 -10 -17 -17 -16 -13 -17 -12 -4 4 13 16 21 21 21 13z
m-142 -93 c-10 -2 -26 -2 -35 0 -10 3 -2 5 17 5 19 0 27 -2 18 -5z m695 0 c-7
-2 -21 -2 -30 0 -10 3 -4 5 12 5 17 0 24 -2 18 -5z m236 -193 c0 -10 -3 -8 -9
5 -12 27 -12 43 0 25 5 -8 9 -22 9 -30z m8 -72 c-3 -7 -5 -2 -5 12 0 14 2 19
5 13 2 -7 2 -19 0 -25z m-624 -215 c-7 -2 -19 -2 -25 0 -7 3 -2 5 12 5 14 0
19 -2 13 -5z m-246 -19 c-3 -3 -12 -4 -19 -1 -8 3 -5 6 6 6 11 1 17 -2 13 -5z
m630 -10 c-3 -3 -12 -4 -19 -1 -8 3 -5 6 6 6 11 1 17 -2 13 -5z m-460 -29 c73
-19 124 -19 197 0 51 14 62 14 81 1 29 -19 122 -46 160 -46 29 0 112 19 145
34 17 7 86 -89 119 -165 97 -231 50 -514 -116 -699 -271 -301 -732 -290 -1001
25 -50 58 -114 186 -133 265 -17 71 -17 230 0 300 17 70 69 183 109 237 l32
42 37 -16 c25 -11 66 -17 118 -17 66 0 89 4 135 26 30 14 56 27 57 27 1 1 28
-6 60 -14z m-614 -492 c3 -54 9 -108 12 -120 12 -37 -22 -29 -66 16 -33 33
-39 45 -39 83 0 43 18 80 50 105 32 25 37 14 43 -84z m1478 66 c58 -62 42
-153 -33 -194 -20 -11 -39 -17 -41 -15 -3 3 1 34 9 70 7 36 14 89 14 118 0 60
10 65 51 21z m-761 -724 c41 0 94 3 118 8 l42 7 0 -38 c0 -21 5 -43 11 -49 17
-17 -75 -33 -184 -33 -80 0 -163 11 -171 22 -1 1 -1 24 2 51 l4 47 52 -7 c28
-5 85 -8 126 -8z m-287 -104 c28 -15 75 -34 102 -41 28 -7 51 -14 52 -15 2 -1
-19 -24 -45 -51 -70 -73 -87 -113 -87 -209 0 -89 15 -136 51 -160 52 -34 123
-6 143 58 5 17 13 62 17 100 l6 67 43 0 c49 0 55 -10 55 -93 0 -89 42 -147
106 -147 46 0 80 39 95 108 23 111 -13 217 -99 292 l-43 38 41 7 c23 4 73 23
112 42 69 35 72 35 157 29 149 -12 243 -72 300 -196 24 -51 25 -65 26 -209 l0
-155 -95 2 c-52 1 -103 1 -112 2 -16 0 -18 11 -18 95 0 80 -3 96 -17 103 -42
22 -43 14 -43 -294 l0 -294 -465 2 -465 3 -3 288 c-3 298 -5 315 -44 300 -10
-4 -13 -30 -13 -103 0 -55 -3 -100 -7 -102 -5 -2 -56 -2 -115 0 l-108 3 0 143
c0 178 13 226 82 302 73 79 151 110 281 113 46 1 68 -5 110 -28z m338 -108
c18 -49 -42 -99 -89 -74 -28 15 -36 58 -18 86 28 43 88 36 107 -12z m-170
-191 c-7 -90 -20 -132 -40 -132 -20 1 -33 23 -41 75 -11 71 0 125 37 174 l26
34 13 -25 c10 -19 11 -50 5 -126z m290 87 c27 -53 27 -167 0 -200 -18 -22 -21
-23 -36 -8 -22 22 -38 196 -22 239 13 35 28 27 58 -31z m-703 -581 c3 -218 -4
-252 -54 -285 -16 -10 -44 -17 -68 -17 -32 1 -46 8 -73 38 l-33 36 0 215 0
216 113 -3 112 -3 3 -197z m1280 -1 c2 -165 0 -204 -14 -232 -29 -62 -101 -86
-159 -55 -50 27 -55 51 -55 280 l0 211 113 -3 112 -3 3 -198z m-711 -419 c-2
-35 -3 -9 -3 57 0 66 1 94 3 63 2 -32 2 -86 0 -120z m-500 20 c-2 -13 -4 -3
-4 22 0 25 2 35 4 23 2 -13 2 -33 0 -45z m500 -300 c-2 -35 -3 -7 -3 62 0 69
1 97 3 63 2 -35 2 -91 0 -125z m0 -280 c-2 -35 -3 -9 -3 57 0 66 1 94 3 63 2
-32 2 -86 0 -120z m0 -195 c-2 -21 -4 -6 -4 32 0 39 2 55 4 38 2 -18 2 -50 0
-70z m-89 -111 c16 -3 15 -104 -1 -150 -27 -72 -110 -122 -180 -108 -88 18
-137 89 -137 199 l0 62 153 -1 c83 0 158 -1 165 -2z m400 -65 c4 -88 -25 -144
-91 -176 -49 -24 -70 -26 -118 -10 -76 26 -109 82 -109 186 l0 68 158 0 157 0
3 -68z"/>
<path d="M3550 3560 c-27 -27 -25 -56 6 -86 19 -20 31 -24 52 -19 40 10 52 24
52 60 0 59 -68 87 -110 45z"/>
<path d="M4037 3562 c-51 -57 21 -140 82 -95 32 24 39 68 15 94 -22 24 -76 25
-97 1z"/>
<path d="M3632 3278 c-17 -17 -15 -23 15 -69 14 -22 47 -52 72 -67 62 -36 174
-38 237 -5 73 39 120 111 91 140 -13 13 -17 13 -33 -7 -80 -92 -110 -107 -203
-98 -54 5 -86 26 -125 80 -30 41 -36 44 -54 26z"/>
<path d="M3841 2533 c-1 -17 16 -25 25 -12 4 7 3 9 -4 5 -5 -3 -13 0 -15 6 -4
9 -6 10 -6 1z"/>
<path d="M3740 420 c-8 -5 -10 -10 -5 -10 6 0 17 5 25 10 8 5 11 10 5 10 -5 0
-17 -5 -25 -10z"/>
<path d="M3685 391 c-6 -11 13 -26 22 -17 4 3 1 6 -6 6 -7 0 -9 5 -6 10 3 6 4
10 1 10 -3 0 -7 -4 -11 -9z"/>
<path d="M485 1228 c-2 -7 -9 -30 -15 -50 -13 -44 -79 -106 -120 -115 -48 -9
-67 -53 -23 -53 54 0 116 -63 143 -145 7 -22 18 -43 24 -47 15 -10 36 11 36
36 0 48 78 127 154 156 14 5 26 17 26 25 0 16 -5 19 -52 29 -37 8 -87 61 -115
123 -23 50 -49 68 -58 41z m70 -154 l44 -47 -47 -42 -47 -43 -41 46 -40 45 40
43 c23 23 42 43 44 43 1 1 22 -20 47 -45z"/>
<path d="M904 1023 c-23 -104 -67 -161 -159 -205 -33 -15 -65 -28 -72 -28 -18
0 -26 -19 -14 -34 6 -8 29 -16 51 -20 71 -11 141 -90 179 -203 19 -55 46 -81
55 -51 2 7 9 33 16 57 17 62 96 143 177 182 92 44 96 70 13 83 -58 9 -132 82
-175 172 -37 78 -60 93 -71 47z m51 -122 c7 -22 90 -112 120 -130 14 -9 16
-14 7 -18 -29 -12 -114 -86 -134 -117 l-22 -33 -39 59 c-21 32 -55 69 -74 82
l-34 23 50 37 c28 19 62 54 77 76 30 45 40 49 49 21z"/>
<path d="M485 708 c-2 -7 -9 -30 -15 -50 -13 -44 -79 -106 -120 -115 -32 -6
-55 -27 -46 -41 3 -5 19 -12 34 -15 46 -9 93 -56 124 -124 17 -37 34 -63 43
-63 16 0 19 6 29 52 9 41 49 82 115 117 34 18 61 39 61 47 0 15 -6 18 -50 28
-37 8 -90 63 -117 124 -23 49 -49 67 -58 40z m70 -154 l44 -47 -47 -43 c-53
-49 -58 -51 -66 -26 -4 10 -19 31 -35 46 l-29 28 42 43 c22 24 42 44 44 44 1
1 22 -20 47 -45z"/>
</g>
</svg>
